<svg width="512" height="512" viewBox="0 0 512 512" xmlns="http://www.w3.org/2000/svg">
  <!-- Solid Background Squircle -->
  <path fill="#0E0E10" d="M512 256C512 448 448 512 256 512C64 512 0 448 0 256C0 64 64 0 256 0C448 0 512 64 512 256Z"/>
  
  <!-- Solid Gold Play Button -->
  <path fill="#C8922A" d="M380 256L190 365V147L380 256Z"/>
  
  <!-- JRR Text Paths -->
  <path fill="#F0EDE8" d="M145 220H175V310C175 325 165 335 145 335C130 335 120 330 115 320L135 305C138 310 140 312 145 312C150 312 153 310 153 305V220H145Z"/>
  <path fill="#F0EDE8" d="M210 220H250C270 220 280 230 280 245C280 255 275 265 260 268L285 335H255L235 275H230V335H210V220ZM230 260H245C255 260 260 255 260 245C260 235 255 230 245 230H230V260Z"/>
  <path fill="#F0EDE8" d="M320 220H360C380 220 390 230 390 245C390 255 385 265 370 268L395 335H365L345 275H340V335H320V220ZM340 260H355C365 260 370 255 370 245C370 235 365 230 355 230H340V260Z"/>
</svg>
